<svg width="24" height="24" viewBox="0 0 24 24" fill="none" xmlns="http://www.w3.org/2000/svg">
<mask id="mask0_246_2564" style="mask-type:alpha" maskUnits="userSpaceOnUse" x="3" y="3" width="18" height="18">
<path d="M20.3864 10.3636H12V13.8409H16.8273C16.3773 16.05 14.4955 17.3182 12 17.3182C9.05455 17.3182 6.68182 14.9455 6.68182 12C6.68182 9.05455 9.05455 6.68182 12 6.68182C13.2682 6.68182 14.4136 7.13182 15.3136 7.86818L17.9318 5.25C16.3364 3.85909 14.2909 3 12 3C7.00909 3 3 7.00909 3 12C3 16.9909 7.00909 21 12 21C16.5 21 20.5909 17.7273 20.5909 12C20.5909 11.4682 20.5091 10.8955 20.3864 10.3636Z" fill="white"/>
</mask>
<g mask="url(#mask0_246_2564)">
<path d="M2.18201 17.3181V6.68213L9.13601 12.0001L2.18201 17.3181Z" fill="#FBBC05"/>
</g>
<mask id="mask1_246_2564" style="mask-type:alpha" maskUnits="userSpaceOnUse" x="3" y="3" width="18" height="18">
<path d="M20.3864 10.3636H12V13.8409H16.8273C16.3773 16.05 14.4955 17.3182 12 17.3182C9.05455 17.3182 6.68182 14.9455 6.68182 12C6.68182 9.05455 9.05455 6.68182 12 6.68182C13.2682 6.68182 14.4136 7.13182 15.3136 7.86818L17.9318 5.25C16.3364 3.85909 14.2909 3 12 3C7.00909 3 3 7.00909 3 12C3 16.9909 7.00909 21 12 21C16.5 21 20.5909 17.7273 20.5909 12C20.5909 11.4682 20.5091 10.8955 20.3864 10.3636Z" fill="white"/>
</mask>
<g mask="url(#mask1_246_2564)">
<path d="M2.18201 6.68213L9.13601 12.0001L12 9.50513L21.818 7.90913V2.18213H2.18201V6.68213Z" fill="#EA4335"/>
</g>
<mask id="mask2_246_2564" style="mask-type:alpha" maskUnits="userSpaceOnUse" x="3" y="3" width="18" height="18">
<path d="M20.3864 10.3636H12V13.8409H16.8273C16.3773 16.05 14.4955 17.3182 12 17.3182C9.05455 17.3182 6.68182 14.9455 6.68182 12C6.68182 9.05455 9.05455 6.68182 12 6.68182C13.2682 6.68182 14.4136 7.13182 15.3136 7.86818L17.9318 5.25C16.3364 3.85909 14.2909 3 12 3C7.00909 3 3 7.00909 3 12C3 16.9909 7.00909 21 12 21C16.5 21 20.5909 17.7273 20.5909 12C20.5909 11.4682 20.5091 10.8955 20.3864 10.3636Z" fill="white"/>
</mask>
<g mask="url(#mask2_246_2564)">
<path d="M2.18201 17.3181L14.455 7.90913L17.686 8.31813L21.818 2.18213V21.8181H2.18201V17.3181Z" fill="#34A853"/>
</g>
<mask id="mask3_246_2564" style="mask-type:alpha" maskUnits="userSpaceOnUse" x="3" y="3" width="18" height="18">
<path d="M20.3864 10.3636H12V13.8409H16.8273C16.3773 16.05 14.4955 17.3182 12 17.3182C9.05455 17.3182 6.68182 14.9455 6.68182 12C6.68182 9.05455 9.05455 6.68182 12 6.68182C13.2682 6.68182 14.4136 7.13182 15.3136 7.86818L17.9318 5.25C16.3364 3.85909 14.2909 3 12 3C7.00909 3 3 7.00909 3 12C3 16.9909 7.00909 21 12 21C16.5 21 20.5909 17.7273 20.5909 12C20.5909 11.4682 20.5091 10.8955 20.3864 10.3636Z" fill="white"/>
</mask>
<g mask="url(#mask3_246_2564)">
<path d="M21.818 21.8181L9.136 12.0001L7.5 10.7731L21.818 6.68213V21.8181Z" fill="#4285F4"/>
</g>
</svg>
