<svg width="28" height="33" viewBox="0 0 28 33" fill="none" xmlns="http://www.w3.org/2000/svg">
<path fill-rule="evenodd" clip-rule="evenodd" d="M19.9829 0.290527C17.5897 0.290527 15.5556 1.28348 14 2.27642C12.4444 1.28348 10.5299 0.290527 8.01709 0.290527C3.11111 0.290527 0 3.97862 0 10.5037C0 18.3054 6.34188 25.9653 14 32.2067C21.6581 26.1072 28 18.4473 28 10.5037C28 3.97862 24.7692 0.290527 19.9829 0.290527Z" fill="#CCCCCC"/>
<path fill-rule="evenodd" clip-rule="evenodd" d="M0.717773 10.6453C0.717773 18.5889 7.89727 26.107 13.8802 31.0717C15.6751 29.6532 17.4699 27.951 19.1451 26.2488C11.128 18.3052 3.46991 11.0709 0.837432 8.51758C0.837432 9.08498 0.717773 9.79423 0.717773 10.6453Z" fill="url(#paint0_linear_220_1582)"/>
<path fill-rule="evenodd" clip-rule="evenodd" d="M26.684 14.3341C20.8208 8.66013 17.3507 5.68129 13.5216 2.98614C12.4447 2.27689 10.4105 1.14209 8.13699 1.14209C5.98314 1.14209 4.06861 1.99319 2.75236 3.55354C1.91476 4.54649 1.31646 5.82313 1.07715 7.38348C4.06861 9.93678 12.325 16.8874 20.5814 24.6892C23.3336 21.5685 25.6071 18.0222 26.684 14.3341Z" fill="url(#paint1_linear_220_1582)"/>
<path fill-rule="evenodd" clip-rule="evenodd" d="M25.128 3.55256C23.8118 1.99221 22.0169 1.14111 19.8631 1.14111C17.5896 1.14111 15.9144 1.99221 14.5981 2.84331C16.8716 4.40366 21.7776 7.6662 26.9229 12.2054C27.0426 11.638 27.0426 10.9288 27.0426 10.3614C27.1622 7.52435 26.4443 5.11291 25.128 3.55256Z" fill="url(#paint2_linear_220_1582)"/>
<defs>
<linearGradient id="paint0_linear_220_1582" x1="0.770423" y1="31.0149" x2="19.266" y2="31.0149" gradientUnits="userSpaceOnUse">
<stop stop-color="#3656CC"/>
<stop offset="0.35" stop-color="#304CB2"/>
<stop offset="0.72" stop-color="#283B80"/>
</linearGradient>
<linearGradient id="paint1_linear_220_1582" x1="-6.03262" y1="11.9831" x2="13.2784" y2="30.9396" gradientUnits="userSpaceOnUse">
<stop offset="0.3" stop-color="#E61C23"/>
<stop offset="0.8" stop-color="#C3161C"/>
</linearGradient>
<linearGradient id="paint2_linear_220_1582" x1="10.7681" y1="5.43846" x2="21.389" y2="16.6143" gradientUnits="userSpaceOnUse">
<stop stop-color="#FDBC11"/>
<stop offset="0.25" stop-color="#FCB415"/>
<stop offset="0.8" stop-color="#F89E1C"/>
</linearGradient>
</defs>
</svg>
