<svg width="108" height="77" viewBox="0 0 108 77" fill="none" xmlns="http://www.w3.org/2000/svg">
<path fill-rule="evenodd" clip-rule="evenodd" d="M102.6 0.150879C105.582 0.150879 108 2.41747 108 5.21345V55.8391C108 58.6351 105.582 60.9017 102.6 60.9017H91.8V71.0269C91.8 73.8228 89.3823 76.0894 86.4 76.0894H5.4C2.41766 76.0894 0 73.8228 0 71.0269V55.8391C0 53.0432 2.41766 50.7766 5.4 50.7766C8.38234 50.7766 10.8 48.51 10.8 45.714C10.8 42.918 8.38234 40.6514 5.4 40.6514C2.41766 40.6514 0 38.3848 0 35.5889V20.4012C0 17.6052 2.41766 15.3386 5.4 15.3386H10.8V5.21345C10.8 2.41747 13.2177 0.150879 16.2 0.150879H102.6ZM32.4 25.4637H10.8V31.3905C17.092 33.4755 21.6 39.1012 21.6 45.714C21.6 52.3268 17.092 57.9526 10.8 60.0375V65.9643H32.4V55.8391H43.2V65.9643H81V60.0375C74.708 57.9526 70.2 52.3268 70.2 45.714C70.2 39.1012 74.708 33.4755 81 31.3905V25.4637H43.2V35.5889H32.4V25.4637ZM97.2 10.276H21.6V15.3386H86.4C89.3823 15.3386 91.8 17.6052 91.8 20.4012V35.5889C91.8 38.3848 89.3823 40.6514 86.4 40.6514C83.4177 40.6514 81 42.918 81 45.714C81 48.51 83.4177 50.7766 86.4 50.7766H97.2V10.276ZM43.2 40.6514V50.7766H32.4V40.6514H43.2Z" fill="white"/>
</svg>
